<?xml version="1.0" encoding="utf-8" standalone="no"?>
<!DOCTYPE svg PUBLIC "-//W3C//DTD SVG 1.1//EN"
  "http://www.w3.org/Graphics/SVG/1.1/DTD/svg11.dtd">
<svg xmlns:xlink="http://www.w3.org/1999/xlink" width="460.8pt" height="345.6pt" viewBox="0 0 460.8 345.6" xmlns="http://www.w3.org/2000/svg" version="1.1">
 <metadata>
  <rdf:RDF xmlns:dc="http://purl.org/dc/elements/1.1/" xmlns:cc="http://creativecommons.org/ns#" xmlns:rdf="http://www.w3.org/1999/02/22-rdf-syntax-ns#">
   <cc:Work>
    <dc:type rdf:resource="http://purl.org/dc/dcmitype/StillImage"/>
    <dc:date>2023-07-28T17:41:09.437962</dc:date>
    <dc:format>image/svg+xml</dc:format>
    <dc:creator>
     <cc:Agent>
      <dc:title>Matplotlib v3.5.1, https://matplotlib.org/</dc:title>
     </cc:Agent>
    </dc:creator>
   </cc:Work>
  </rdf:RDF>
 </metadata>
 <defs>
  <style type="text/css">*{stroke-linejoin: round; stroke-linecap: butt}</style>
 </defs>
 <g id="figure_1">
  <g id="patch_1">
   <path d="M 0 345.6 
L 460.8 345.6 
L 460.8 0 
L 0 0 
z
" style="fill: #ffffff"/>
  </g>
  <g id="axes_1">
   <g id="patch_2">
    <path d="M 57.6 307.584 
L 414.72 307.584 
L 414.72 41.472 
L 57.6 41.472 
z
" style="fill: #ffffff"/>
   </g>
   <g id="matplotlib.axis_1">
    <g id="xtick_1">
     <g id="line2d_1">
      <defs>
       <path id="m244c49ebda" d="M 0 0 
L 0 3.5 
" style="stroke: #000000; stroke-width: 0.8"/>
      </defs>
      <g>
       <use xlink:href="#m244c49ebda" x="73.832727" y="307.584" style="stroke: #000000; stroke-width: 0.8"/>
      </g>
     </g>
     <g id="text_1">
      <!-- 0 -->
      <g transform="translate(70.651477 322.182437)scale(0.1 -0.1)">
       <defs>
        <path id="DejaVuSans-30" d="M 2034 4250 
Q 1547 4250 1301 3770 
Q 1056 3291 1056 2328 
Q 1056 1369 1301 889 
Q 1547 409 2034 409 
Q 2525 409 2770 889 
Q 3016 1369 3016 2328 
Q 3016 3291 2770 3770 
Q 2525 4250 2034 4250 
z
M 2034 4750 
Q 2819 4750 3233 4129 
Q 3647 3509 3647 2328 
Q 3647 1150 3233 529 
Q 2819 -91 2034 -91 
Q 1250 -91 836 529 
Q 422 1150 422 2328 
Q 422 3509 836 4129 
Q 1250 4750 2034 4750 
z
" transform="scale(0.015625)"/>
       </defs>
       <use xlink:href="#DejaVuSans-30"/>
      </g>
     </g>
    </g>
    <g id="xtick_2">
     <g id="line2d_2">
      <g>
       <use xlink:href="#m244c49ebda" x="114.618474" y="307.584" style="stroke: #000000; stroke-width: 0.8"/>
      </g>
     </g>
     <g id="text_2">
      <!-- 25 -->
      <g transform="translate(108.255974 322.182437)scale(0.1 -0.1)">
       <defs>
        <path id="DejaVuSans-32" d="M 1228 531 
L 3431 531 
L 3431 0 
L 469 0 
L 469 531 
Q 828 903 1448 1529 
Q 2069 2156 2228 2338 
Q 2531 2678 2651 2914 
Q 2772 3150 2772 3378 
Q 2772 3750 2511 3984 
Q 2250 4219 1831 4219 
Q 1534 4219 1204 4116 
Q 875 4013 500 3803 
L 500 4441 
Q 881 4594 1212 4672 
Q 1544 4750 1819 4750 
Q 2544 4750 2975 4387 
Q 3406 4025 3406 3419 
Q 3406 3131 3298 2873 
Q 3191 2616 2906 2266 
Q 2828 2175 2409 1742 
Q 1991 1309 1228 531 
z
" transform="scale(0.015625)"/>
        <path id="DejaVuSans-35" d="M 691 4666 
L 3169 4666 
L 3169 4134 
L 1269 4134 
L 1269 2991 
Q 1406 3038 1543 3061 
Q 1681 3084 1819 3084 
Q 2600 3084 3056 2656 
Q 3513 2228 3513 1497 
Q 3513 744 3044 326 
Q 2575 -91 1722 -91 
Q 1428 -91 1123 -41 
Q 819 9 494 109 
L 494 744 
Q 775 591 1075 516 
Q 1375 441 1709 441 
Q 2250 441 2565 725 
Q 2881 1009 2881 1497 
Q 2881 1984 2565 2268 
Q 2250 2553 1709 2553 
Q 1456 2553 1204 2497 
Q 953 2441 691 2322 
L 691 4666 
z
" transform="scale(0.015625)"/>
       </defs>
       <use xlink:href="#DejaVuSans-32"/>
       <use xlink:href="#DejaVuSans-35" x="63.623047"/>
      </g>
     </g>
    </g>
    <g id="xtick_3">
     <g id="line2d_3">
      <g>
       <use xlink:href="#m244c49ebda" x="155.404221" y="307.584" style="stroke: #000000; stroke-width: 0.8"/>
      </g>
     </g>
     <g id="text_3">
      <!-- 50 -->
      <g transform="translate(149.041721 322.182437)scale(0.1 -0.1)">
       <use xlink:href="#DejaVuSans-35"/>
       <use xlink:href="#DejaVuSans-30" x="63.623047"/>
      </g>
     </g>
    </g>
    <g id="xtick_4">
     <g id="line2d_4">
      <g>
       <use xlink:href="#m244c49ebda" x="196.189968" y="307.584" style="stroke: #000000; stroke-width: 0.8"/>
      </g>
     </g>
     <g id="text_4">
      <!-- 75 -->
      <g transform="translate(189.827468 322.182437)scale(0.1 -0.1)">
       <defs>
        <path id="DejaVuSans-37" d="M 525 4666 
L 3525 4666 
L 3525 4397 
L 1831 0 
L 1172 0 
L 2766 4134 
L 525 4134 
L 525 4666 
z
" transform="scale(0.015625)"/>
       </defs>
       <use xlink:href="#DejaVuSans-37"/>
       <use xlink:href="#DejaVuSans-35" x="63.623047"/>
      </g>
     </g>
    </g>
    <g id="xtick_5">
     <g id="line2d_5">
      <g>
       <use xlink:href="#m244c49ebda" x="236.975715" y="307.584" style="stroke: #000000; stroke-width: 0.8"/>
      </g>
     </g>
     <g id="text_5">
      <!-- 100 -->
      <g transform="translate(227.431965 322.182437)scale(0.1 -0.1)">
       <defs>
        <path id="DejaVuSans-31" d="M 794 531 
L 1825 531 
L 1825 4091 
L 703 3866 
L 703 4441 
L 1819 4666 
L 2450 4666 
L 2450 531 
L 3481 531 
L 3481 0 
L 794 0 
L 794 531 
z
" transform="scale(0.015625)"/>
       </defs>
       <use xlink:href="#DejaVuSans-31"/>
       <use xlink:href="#DejaVuSans-30" x="63.623047"/>
       <use xlink:href="#DejaVuSans-30" x="127.246094"/>
      </g>
     </g>
    </g>
    <g id="xtick_6">
     <g id="line2d_6">
      <g>
       <use xlink:href="#m244c49ebda" x="277.761462" y="307.584" style="stroke: #000000; stroke-width: 0.8"/>
      </g>
     </g>
     <g id="text_6">
      <!-- 125 -->
      <g transform="translate(268.217712 322.182437)scale(0.1 -0.1)">
       <use xlink:href="#DejaVuSans-31"/>
       <use xlink:href="#DejaVuSans-32" x="63.623047"/>
       <use xlink:href="#DejaVuSans-35" x="127.246094"/>
      </g>
     </g>
    </g>
    <g id="xtick_7">
     <g id="line2d_7">
      <g>
       <use xlink:href="#m244c49ebda" x="318.547209" y="307.584" style="stroke: #000000; stroke-width: 0.8"/>
      </g>
     </g>
     <g id="text_7">
      <!-- 150 -->
      <g transform="translate(309.003459 322.182437)scale(0.1 -0.1)">
       <use xlink:href="#DejaVuSans-31"/>
       <use xlink:href="#DejaVuSans-35" x="63.623047"/>
       <use xlink:href="#DejaVuSans-30" x="127.246094"/>
      </g>
     </g>
    </g>
    <g id="xtick_8">
     <g id="line2d_8">
      <g>
       <use xlink:href="#m244c49ebda" x="359.332956" y="307.584" style="stroke: #000000; stroke-width: 0.8"/>
      </g>
     </g>
     <g id="text_8">
      <!-- 175 -->
      <g transform="translate(349.789206 322.182437)scale(0.1 -0.1)">
       <use xlink:href="#DejaVuSans-31"/>
       <use xlink:href="#DejaVuSans-37" x="63.623047"/>
       <use xlink:href="#DejaVuSans-35" x="127.246094"/>
      </g>
     </g>
    </g>
    <g id="xtick_9">
     <g id="line2d_9">
      <g>
       <use xlink:href="#m244c49ebda" x="400.118703" y="307.584" style="stroke: #000000; stroke-width: 0.8"/>
      </g>
     </g>
     <g id="text_9">
      <!-- 200 -->
      <g transform="translate(390.574953 322.182437)scale(0.1 -0.1)">
       <use xlink:href="#DejaVuSans-32"/>
       <use xlink:href="#DejaVuSans-30" x="63.623047"/>
       <use xlink:href="#DejaVuSans-30" x="127.246094"/>
      </g>
     </g>
    </g>
   </g>
   <g id="matplotlib.axis_2">
    <g id="ytick_1">
     <g id="line2d_10">
      <defs>
       <path id="m5b4e604982" d="M 0 0 
L -3.5 0 
" style="stroke: #000000; stroke-width: 0.8"/>
      </defs>
      <g>
       <use xlink:href="#m5b4e604982" x="57.6" y="298.613471" style="stroke: #000000; stroke-width: 0.8"/>
      </g>
     </g>
     <g id="text_10">
      <!-- −0.65 -->
      <g transform="translate(19.954687 302.41269)scale(0.1 -0.1)">
       <defs>
        <path id="DejaVuSans-2212" d="M 678 2272 
L 4684 2272 
L 4684 1741 
L 678 1741 
L 678 2272 
z
" transform="scale(0.015625)"/>
        <path id="DejaVuSans-2e" d="M 684 794 
L 1344 794 
L 1344 0 
L 684 0 
L 684 794 
z
" transform="scale(0.015625)"/>
        <path id="DejaVuSans-36" d="M 2113 2584 
Q 1688 2584 1439 2293 
Q 1191 2003 1191 1497 
Q 1191 994 1439 701 
Q 1688 409 2113 409 
Q 2538 409 2786 701 
Q 3034 994 3034 1497 
Q 3034 2003 2786 2293 
Q 2538 2584 2113 2584 
z
M 3366 4563 
L 3366 3988 
Q 3128 4100 2886 4159 
Q 2644 4219 2406 4219 
Q 1781 4219 1451 3797 
Q 1122 3375 1075 2522 
Q 1259 2794 1537 2939 
Q 1816 3084 2150 3084 
Q 2853 3084 3261 2657 
Q 3669 2231 3669 1497 
Q 3669 778 3244 343 
Q 2819 -91 2113 -91 
Q 1303 -91 875 529 
Q 447 1150 447 2328 
Q 447 3434 972 4092 
Q 1497 4750 2381 4750 
Q 2619 4750 2861 4703 
Q 3103 4656 3366 4563 
z
" transform="scale(0.015625)"/>
       </defs>
       <use xlink:href="#DejaVuSans-2212"/>
       <use xlink:href="#DejaVuSans-30" x="83.789062"/>
       <use xlink:href="#DejaVuSans-2e" x="147.412109"/>
       <use xlink:href="#DejaVuSans-36" x="179.199219"/>
       <use xlink:href="#DejaVuSans-35" x="242.822266"/>
      </g>
     </g>
    </g>
    <g id="ytick_2">
     <g id="line2d_11">
      <g>
       <use xlink:href="#m5b4e604982" x="57.6" y="266.149993" style="stroke: #000000; stroke-width: 0.8"/>
      </g>
     </g>
     <g id="text_11">
      <!-- −0.60 -->
      <g transform="translate(19.954687 269.949212)scale(0.1 -0.1)">
       <use xlink:href="#DejaVuSans-2212"/>
       <use xlink:href="#DejaVuSans-30" x="83.789062"/>
       <use xlink:href="#DejaVuSans-2e" x="147.412109"/>
       <use xlink:href="#DejaVuSans-36" x="179.199219"/>
       <use xlink:href="#DejaVuSans-30" x="242.822266"/>
      </g>
     </g>
    </g>
    <g id="ytick_3">
     <g id="line2d_12">
      <g>
       <use xlink:href="#m5b4e604982" x="57.6" y="233.686514" style="stroke: #000000; stroke-width: 0.8"/>
      </g>
     </g>
     <g id="text_12">
      <!-- −0.55 -->
      <g transform="translate(19.954687 237.485733)scale(0.1 -0.1)">
       <use xlink:href="#DejaVuSans-2212"/>
       <use xlink:href="#DejaVuSans-30" x="83.789062"/>
       <use xlink:href="#DejaVuSans-2e" x="147.412109"/>
       <use xlink:href="#DejaVuSans-35" x="179.199219"/>
       <use xlink:href="#DejaVuSans-35" x="242.822266"/>
      </g>
     </g>
    </g>
    <g id="ytick_4">
     <g id="line2d_13">
      <g>
       <use xlink:href="#m5b4e604982" x="57.6" y="201.223036" style="stroke: #000000; stroke-width: 0.8"/>
      </g>
     </g>
     <g id="text_13">
      <!-- −0.50 -->
      <g transform="translate(19.954687 205.022254)scale(0.1 -0.1)">
       <use xlink:href="#DejaVuSans-2212"/>
       <use xlink:href="#DejaVuSans-30" x="83.789062"/>
       <use xlink:href="#DejaVuSans-2e" x="147.412109"/>
       <use xlink:href="#DejaVuSans-35" x="179.199219"/>
       <use xlink:href="#DejaVuSans-30" x="242.822266"/>
      </g>
     </g>
    </g>
    <g id="ytick_5">
     <g id="line2d_14">
      <g>
       <use xlink:href="#m5b4e604982" x="57.6" y="168.759557" style="stroke: #000000; stroke-width: 0.8"/>
      </g>
     </g>
     <g id="text_14">
      <!-- −0.45 -->
      <g transform="translate(19.954687 172.558776)scale(0.1 -0.1)">
       <defs>
        <path id="DejaVuSans-34" d="M 2419 4116 
L 825 1625 
L 2419 1625 
L 2419 4116 
z
M 2253 4666 
L 3047 4666 
L 3047 1625 
L 3713 1625 
L 3713 1100 
L 3047 1100 
L 3047 0 
L 2419 0 
L 2419 1100 
L 313 1100 
L 313 1709 
L 2253 4666 
z
" transform="scale(0.015625)"/>
       </defs>
       <use xlink:href="#DejaVuSans-2212"/>
       <use xlink:href="#DejaVuSans-30" x="83.789062"/>
       <use xlink:href="#DejaVuSans-2e" x="147.412109"/>
       <use xlink:href="#DejaVuSans-34" x="179.199219"/>
       <use xlink:href="#DejaVuSans-35" x="242.822266"/>
      </g>
     </g>
    </g>
    <g id="ytick_6">
     <g id="line2d_15">
      <g>
       <use xlink:href="#m5b4e604982" x="57.6" y="136.296079" style="stroke: #000000; stroke-width: 0.8"/>
      </g>
     </g>
     <g id="text_15">
      <!-- −0.40 -->
      <g transform="translate(19.954687 140.095297)scale(0.1 -0.1)">
       <use xlink:href="#DejaVuSans-2212"/>
       <use xlink:href="#DejaVuSans-30" x="83.789062"/>
       <use xlink:href="#DejaVuSans-2e" x="147.412109"/>
       <use xlink:href="#DejaVuSans-34" x="179.199219"/>
       <use xlink:href="#DejaVuSans-30" x="242.822266"/>
      </g>
     </g>
    </g>
    <g id="ytick_7">
     <g id="line2d_16">
      <g>
       <use xlink:href="#m5b4e604982" x="57.6" y="103.8326" style="stroke: #000000; stroke-width: 0.8"/>
      </g>
     </g>
     <g id="text_16">
      <!-- −0.35 -->
      <g transform="translate(19.954687 107.631819)scale(0.1 -0.1)">
       <defs>
        <path id="DejaVuSans-33" d="M 2597 2516 
Q 3050 2419 3304 2112 
Q 3559 1806 3559 1356 
Q 3559 666 3084 287 
Q 2609 -91 1734 -91 
Q 1441 -91 1130 -33 
Q 819 25 488 141 
L 488 750 
Q 750 597 1062 519 
Q 1375 441 1716 441 
Q 2309 441 2620 675 
Q 2931 909 2931 1356 
Q 2931 1769 2642 2001 
Q 2353 2234 1838 2234 
L 1294 2234 
L 1294 2753 
L 1863 2753 
Q 2328 2753 2575 2939 
Q 2822 3125 2822 3475 
Q 2822 3834 2567 4026 
Q 2313 4219 1838 4219 
Q 1578 4219 1281 4162 
Q 984 4106 628 3988 
L 628 4550 
Q 988 4650 1302 4700 
Q 1616 4750 1894 4750 
Q 2613 4750 3031 4423 
Q 3450 4097 3450 3541 
Q 3450 3153 3228 2886 
Q 3006 2619 2597 2516 
z
" transform="scale(0.015625)"/>
       </defs>
       <use xlink:href="#DejaVuSans-2212"/>
       <use xlink:href="#DejaVuSans-30" x="83.789062"/>
       <use xlink:href="#DejaVuSans-2e" x="147.412109"/>
       <use xlink:href="#DejaVuSans-33" x="179.199219"/>
       <use xlink:href="#DejaVuSans-35" x="242.822266"/>
      </g>
     </g>
    </g>
    <g id="ytick_8">
     <g id="line2d_17">
      <g>
       <use xlink:href="#m5b4e604982" x="57.6" y="71.369121" style="stroke: #000000; stroke-width: 0.8"/>
      </g>
     </g>
     <g id="text_17">
      <!-- −0.30 -->
      <g transform="translate(19.954687 75.16834)scale(0.1 -0.1)">
       <use xlink:href="#DejaVuSans-2212"/>
       <use xlink:href="#DejaVuSans-30" x="83.789062"/>
       <use xlink:href="#DejaVuSans-2e" x="147.412109"/>
       <use xlink:href="#DejaVuSans-33" x="179.199219"/>
       <use xlink:href="#DejaVuSans-30" x="242.822266"/>
      </g>
     </g>
    </g>
   </g>
   <g id="line2d_18">
    <path d="M 73.832727 112.846284 
L 75.464157 185.577483 
L 77.095587 106.383191 
L 78.727017 192.583845 
L 80.358447 221.07976 
L 81.989877 152.710582 
L 83.621307 248.95364 
L 85.252736 137.749472 
L 86.884166 235.513887 
L 88.515596 137.876892 
L 90.147026 222.47392 
L 91.778456 189.6061 
L 93.409886 138.793637 
L 95.041316 233.143312 
L 96.672746 160.413699 
L 98.304175 221.251602 
L 99.935605 207.399578 
L 101.567035 67.750303 
L 103.198465 199.84678 
L 104.829895 270.257879 
L 106.461325 216.317888 
L 108.092755 272.878312 
L 109.724185 184.484087 
L 111.355614 235.225188 
L 112.987044 183.969965 
L 114.618474 179.766654 
L 116.249904 228.437962 
L 117.881334 204.433875 
L 119.512764 138.028985 
L 121.144194 99.683251 
L 122.775624 173.947377 
L 124.407053 173.362105 
L 126.038483 208.263793 
L 127.669913 120.780657 
L 129.301343 135.426193 
L 130.932773 133.228419 
L 132.564203 139.015419 
L 134.195633 151.407888 
L 137.458492 208.706455 
L 139.089922 164.875152 
L 140.721352 208.608559 
L 142.352782 98.929557 
L 143.984212 149.917424 
L 145.615642 211.884664 
L 147.247072 223.081285 
L 148.878502 123.718106 
L 150.509931 239.808049 
L 152.141361 115.089982 
L 153.772791 120.982659 
L 155.404221 263.838028 
L 157.035651 234.436503 
L 158.667081 175.778175 
L 160.298511 121.688664 
L 161.929941 96.776545 
L 163.56137 169.273387 
L 165.1928 149.685747 
L 166.82423 124.988673 
L 168.45566 187.549331 
L 170.08709 148.522665 
L 171.71852 245.703132 
L 173.34995 282.460289 
L 174.98138 53.568 
L 176.61281 161.899861 
L 178.244239 215.174641 
L 179.875669 144.170614 
L 181.507099 141.782934 
L 183.138529 177.052622 
L 184.769959 276.457126 
L 186.401389 133.889875 
L 188.032819 251.664357 
L 189.664249 201.130993 
L 191.295678 133.976555 
L 192.927108 80.781426 
L 194.558538 225.527044 
L 196.189968 132.731578 
L 197.821398 166.106315 
L 199.452828 111.757516 
L 201.084258 74.105977 
L 202.715688 232.363933 
L 204.347117 67.216318 
L 205.978547 144.942458 
L 207.609977 159.133308 
L 209.241407 145.68098 
L 210.872837 152.639771 
L 212.504267 176.972036 
L 214.135697 215.566241 
L 215.767127 118.159081 
L 217.398556 94.534 
L 219.029986 218.669738 
L 220.661416 56.221751 
L 222.292846 83.376406 
L 223.924276 178.005338 
L 225.555706 207.941913 
L 227.187136 157.32232 
L 228.818566 204.235115 
L 230.449995 108.114689 
L 232.081425 150.50452 
L 233.712855 115.310866 
L 235.344285 209.223889 
L 236.975715 147.200468 
L 238.607145 235.381569 
L 240.238575 134.452342 
L 241.870005 167.771719 
L 243.501434 64.507897 
L 246.764294 258.260222 
L 248.395724 206.690813 
L 250.027154 114.010494 
L 251.658584 138.945941 
L 253.290014 112.566015 
L 254.921444 124.750907 
L 256.552873 184.611231 
L 258.184303 295.488 
L 259.815733 170.161668 
L 261.447163 218.615015 
L 263.078593 122.571151 
L 264.710023 164.467653 
L 266.341453 140.041276 
L 267.972883 111.804426 
L 269.604312 276.671196 
L 271.235742 146.459985 
L 272.867172 114.133334 
L 274.498602 197.860589 
L 276.130032 236.040864 
L 277.761462 218.010175 
L 279.392892 239.891017 
L 281.024322 137.618758 
L 282.655751 148.74106 
L 284.287181 147.820396 
L 285.918611 197.167783 
L 287.550041 214.311567 
L 289.181471 171.809456 
L 290.812901 257.915647 
L 292.444331 149.818289 
L 294.075761 164.119442 
L 295.70719 76.97653 
L 298.97005 252.488618 
L 300.60148 158.335682 
L 302.23291 117.103489 
L 303.86434 162.324614 
L 305.49577 78.549082 
L 307.1272 241.241794 
L 308.75863 139.28404 
L 310.390059 185.008494 
L 312.021489 119.339773 
L 313.652919 193.320756 
L 315.284349 168.7812 
L 316.915779 82.997533 
L 318.547209 216.386293 
L 320.178639 170.995106 
L 321.810069 191.888943 
L 323.441498 120.313763 
L 325.072928 192.57554 
L 326.704358 237.871113 
L 328.335788 248.053418 
L 329.967218 94.916126 
L 331.598648 190.038687 
L 333.230078 111.354685 
L 334.861508 162.028102 
L 336.492937 221.026817 
L 338.124367 158.791114 
L 339.755797 189.26392 
L 341.387227 141.895303 
L 343.018657 232.837819 
L 344.650087 101.70611 
L 346.281517 205.134019 
L 347.912947 228.555335 
L 349.544376 180.01712 
L 351.175806 182.000467 
L 352.807236 276.463395 
L 354.438666 177.54086 
L 356.070096 162.934528 
L 357.701526 215.975709 
L 359.332956 82.087006 
L 360.964386 89.763187 
L 362.595815 142.698481 
L 364.227245 93.91329 
L 365.858675 173.377647 
L 367.490105 194.093324 
L 369.121535 242.017872 
L 370.752965 163.974878 
L 372.384395 136.395324 
L 374.015825 176.331642 
L 375.647254 81.5709 
L 377.278684 180.131828 
L 378.910114 174.177461 
L 380.541544 130.790338 
L 383.804404 250.183339 
L 385.435834 217.725026 
L 387.067264 240.387264 
L 388.698693 87.323185 
L 390.330123 80.869323 
L 391.961553 164.305335 
L 393.592983 148.1999 
L 395.224413 93.337597 
L 396.855843 179.155228 
L 398.487273 194.972567 
L 398.487273 194.972567 
" clip-path="url(#p8647233739)" style="fill: none; stroke: #1f77b4; stroke-width: 1.5; stroke-linecap: square"/>
   </g>
   <g id="line2d_19">
    <path d="M 73.832727 177.322672 
L 75.464157 180.342507 
L 77.095587 181.319688 
L 78.727017 182.707587 
L 80.358447 181.289684 
L 81.989877 178.803619 
L 83.621307 179.134875 
L 85.252736 177.149518 
L 86.884166 176.894302 
L 88.515596 175.93501 
L 90.147026 176.147926 
L 91.778456 176.61251 
L 93.409886 178.469594 
L 95.041316 176.765081 
L 96.672746 175.340212 
L 98.304175 176.435431 
L 99.935605 174.893811 
L 101.567035 173.581478 
L 103.198465 175.767525 
L 104.829895 177.299732 
L 106.461325 174.572372 
L 108.092755 175.279301 
L 109.724185 173.844355 
L 111.355614 172.834204 
L 112.987044 169.745329 
L 114.618474 170.57647 
L 116.249904 169.635769 
L 117.881334 168.389136 
L 119.512764 166.535609 
L 121.144194 165.257149 
L 122.775624 167.910762 
L 124.407053 165.776141 
L 126.038483 165.207748 
L 127.669913 164.225138 
L 129.301343 164.723145 
L 130.932773 165.067416 
L 132.564203 165.942289 
L 134.195633 167.473305 
L 135.827063 166.808329 
L 137.458492 165.105772 
L 139.089922 165.305037 
L 140.721352 163.131969 
L 142.352782 160.627326 
L 143.984212 162.208842 
L 145.615642 163.369332 
L 147.247072 162.278085 
L 150.509931 161.589093 
L 152.141361 159.803023 
L 153.772791 159.80744 
L 155.404221 161.572265 
L 157.035651 159.239514 
L 158.667081 159.258415 
L 160.298511 158.431898 
L 161.929941 159.353559 
L 163.56137 158.708186 
L 165.1928 158.511587 
L 166.82423 160.683077 
L 168.45566 162.317119 
L 170.08709 160.846343 
L 171.71852 160.654808 
L 173.34995 157.992066 
L 174.98138 154.837878 
L 178.244239 160.130506 
L 179.875669 159.230246 
L 181.507099 160.719134 
L 183.138529 160.334899 
L 184.769959 160.083199 
L 186.401389 157.354882 
L 188.032819 156.913173 
L 189.664249 157.41331 
L 191.295678 156.31989 
L 192.927108 155.923025 
L 194.558538 158.264609 
L 196.189968 158.474885 
L 197.821398 160.180457 
L 199.452828 161.656151 
L 201.084258 162.173376 
L 202.715688 163.666078 
L 204.347117 161.975207 
L 205.978547 164.574236 
L 207.609977 165.961618 
L 209.241407 166.215141 
L 210.872837 168.459835 
L 212.504267 168.403405 
L 214.135697 168.146353 
L 215.767127 165.374559 
L 217.398556 166.265794 
L 219.029986 169.424886 
L 220.661416 168.218205 
L 222.292846 169.43584 
L 223.924276 171.014804 
L 225.555706 169.025679 
L 227.187136 169.691677 
L 230.449995 168.946379 
L 232.081425 169.17088 
L 233.712855 170.027205 
L 235.344285 171.096612 
L 236.975715 168.572085 
L 238.607145 169.955801 
L 240.238575 168.668072 
L 241.870005 169.816804 
L 243.501434 168.867645 
L 245.132864 171.428998 
L 246.764294 172.997552 
L 248.395724 172.793416 
L 250.027154 170.557922 
L 251.658584 172.078486 
L 253.290014 171.526661 
L 254.921444 172.515902 
L 256.552873 174.44142 
L 258.184303 173.925018 
L 259.815733 171.800537 
L 261.447163 171.235209 
L 263.078593 171.519665 
L 264.710023 171.102364 
L 266.341453 171.915692 
L 267.972883 173.685973 
L 269.604312 175.050227 
L 271.235742 173.156812 
L 272.867172 175.75688 
L 274.498602 177.025031 
L 276.130032 176.32651 
L 277.761462 175.925207 
L 279.392892 173.206743 
L 281.024322 170.204187 
L 282.655751 170.305781 
L 284.287181 169.209226 
L 285.918611 169.720371 
L 287.550041 169.658882 
L 289.181471 170.213008 
L 290.812901 170.056316 
L 292.444331 167.62591 
L 294.075761 168.156177 
L 295.70719 166.505206 
L 297.33862 168.568312 
L 298.97005 168.797444 
L 300.60148 166.363479 
L 302.23291 166.977795 
L 303.86434 169.639392 
L 305.49577 170.747401 
L 307.1272 173.984164 
L 308.75863 170.905792 
L 310.390059 169.737498 
L 312.021489 169.323435 
L 313.652919 169.900637 
L 315.284349 167.900974 
L 316.915779 168.108455 
L 318.547209 170.347955 
L 318.547209 170.347955 
" clip-path="url(#p8647233739)" style="fill: none; stroke: #ff7f0e; stroke-width: 1.5; stroke-linecap: square"/>
   </g>
   <g id="patch_3">
    <path d="M 57.6 307.584 
L 57.6 41.472 
" style="fill: none; stroke: #000000; stroke-width: 0.8; stroke-linejoin: miter; stroke-linecap: square"/>
   </g>
   <g id="patch_4">
    <path d="M 414.72 307.584 
L 414.72 41.472 
" style="fill: none; stroke: #000000; stroke-width: 0.8; stroke-linejoin: miter; stroke-linecap: square"/>
   </g>
   <g id="patch_5">
    <path d="M 57.6 307.584 
L 414.72 307.584 
" style="fill: none; stroke: #000000; stroke-width: 0.8; stroke-linejoin: miter; stroke-linecap: square"/>
   </g>
   <g id="patch_6">
    <path d="M 57.6 41.472 
L 414.72 41.472 
" style="fill: none; stroke: #000000; stroke-width: 0.8; stroke-linejoin: miter; stroke-linecap: square"/>
   </g>
  </g>
 </g>
 <defs>
  <clipPath id="p8647233739">
   <rect x="57.6" y="41.472" width="357.12" height="266.112"/>
  </clipPath>
 </defs>
</svg>
